<svg width="3395" height="1092" viewBox="0 0 3395 1092" fill="none" xmlns="http://www.w3.org/2000/svg">
<path d="M3297.9 944.04C3298.67 945.06 3299.22 946.236 3299.51 947.488C3299.79 948.741 3299.82 950.042 3299.57 951.304C3299.33 952.567 3298.83 953.761 3298.1 954.809C3297.37 955.858 3296.43 956.735 3295.34 957.383C3293.25 958.842 3290.68 959.433 3288.18 959.035C3285.67 958.637 3283.4 957.28 3281.84 955.238C3281.84 955.238 3226.41 873.992 3185.89 858.029C3174.94 853.264 3169.58 858.029 3156.08 869.703C3135.35 888.764 3103.68 917.355 3020.07 911.161C3018.84 911.132 3017.62 910.846 3016.5 910.321C3015.37 909.796 3014.37 909.041 3013.54 908.105C3012.71 907.168 3012.08 906.069 3011.68 904.874C3011.28 903.679 3011.12 902.413 3011.22 901.154C3011.4 898.457 3012.59 895.936 3014.54 894.116C3016.5 892.296 3019.06 891.317 3021.7 891.385C3096.92 896.865 3123.47 872.801 3143.27 854.694C3157.24 842.066 3170.28 830.868 3193.11 839.445C3239.68 858.029 3295.34 940.466 3297.9 944.04ZM2713.12 573.788C2693.01 569.389 2672.33 568.262 2651.87 570.452C2646.29 570.75 2640.69 570.75 2635.11 570.452C2632.54 570.441 2630.07 571.415 2628.17 573.179C2626.27 574.943 2625.09 577.371 2624.86 579.983C2624.66 582.601 2625.48 585.191 2627.14 587.197C2628.79 589.202 2631.15 590.462 2633.71 590.704C2640.22 591.12 2646.76 591.12 2653.27 590.704C2653.48 590.83 2653.72 590.896 2653.97 590.896C2654.22 590.896 2654.46 590.83 2654.67 590.704C2654.87 596.089 2656.31 601.349 2658.86 606.065C2661.4 610.781 2664.99 614.823 2669.34 617.866C2681.96 625.862 2696.18 630.83 2710.94 632.398C2725.71 633.966 2740.62 632.093 2754.58 626.92C2760.49 625.478 2765.96 622.541 2770.47 618.379C2774.99 614.216 2778.41 608.961 2780.43 603.094C2780.7 601.843 2780.73 600.547 2780.52 599.283C2780.31 598.019 2779.85 596.811 2779.18 595.727C2778.51 594.643 2777.64 593.705 2776.61 592.966C2775.59 592.227 2774.43 591.701 2773.21 591.419C2771.99 591.138 2770.72 591.105 2769.48 591.324C2768.25 591.543 2767.07 592.009 2766.01 592.694C2764.95 593.38 2764.03 594.273 2763.31 595.321C2762.59 596.37 2762.07 597.553 2761.8 598.805C2760.32 601.461 2758.31 603.768 2755.91 605.574C2753.5 607.381 2750.74 608.647 2747.82 609.288C2736.98 613.313 2725.41 614.886 2713.91 613.899C2702.41 612.912 2691.26 609.388 2681.22 603.57C2679.1 602.129 2677.31 600.23 2675.98 598.007C2674.66 595.785 2673.82 593.292 2673.53 590.704C2685.18 591.284 2696.78 592.717 2708.23 594.993C2713.93 596.072 2719.68 596.789 2725.47 597.138C2731.79 596.53 2738.03 595.252 2744.1 593.326C2758.35 589.38 2773.13 587.771 2787.88 588.56C2790.14 589.724 2792.75 589.926 2795.15 589.122C2797.55 588.318 2799.54 586.574 2800.69 584.272C2801.36 583.153 2801.78 581.899 2801.93 580.597C2802.08 579.295 2801.95 577.975 2801.55 576.729C2801.15 575.483 2800.49 574.34 2799.62 573.38C2798.75 572.419 2797.68 571.664 2796.5 571.167C2777.95 566.783 2758.58 567.857 2740.6 574.265C2733.85 575.932 2727.1 576.886 2725 577.601C2720.62 577.152 2716.26 576.436 2711.96 575.456M2711.96 546.15C2697.05 540.694 2681.09 538.899 2665.38 540.909C2662.93 541.32 2660.72 542.696 2659.25 544.743C2657.77 546.79 2657.13 549.346 2657.46 551.868C2657.69 553.169 2658.16 554.412 2658.86 555.525C2659.55 556.637 2660.46 557.598 2661.52 558.351C2662.58 559.104 2663.78 559.634 2665.04 559.912C2666.3 560.19 2667.61 560.209 2668.88 559.969C2681.9 559.139 2694.95 560.919 2707.3 565.211C2708.54 565.645 2709.85 565.809 2711.15 565.69C2712.46 565.571 2713.72 565.172 2714.86 564.521C2716.01 563.869 2717 562.978 2717.78 561.907C2718.57 560.835 2719.12 559.607 2719.41 558.302C2720.06 555.775 2719.71 553.09 2718.45 550.82C2717.19 548.549 2715.11 546.874 2712.66 546.15M2745.73 562.59C2756.21 559.275 2767.13 557.666 2778.1 557.825C2780.62 557.828 2783.03 556.839 2784.86 555.065C2786.68 553.29 2787.76 550.865 2787.88 548.295C2787.94 546.992 2787.75 545.69 2787.31 544.465C2786.87 543.24 2786.2 542.117 2785.33 541.162C2784.47 540.208 2783.42 539.44 2782.26 538.906C2781.09 538.371 2779.84 538.08 2778.56 538.05C2765.15 538.02 2751.81 540.028 2738.97 544.006C2736.65 545.058 2734.79 546.959 2733.75 549.337C2732.72 551.714 2732.59 554.4 2733.38 556.872C2733.8 558.1 2734.45 559.227 2735.3 560.187C2736.16 561.147 2737.2 561.919 2738.35 562.454C2739.51 562.99 2740.76 563.278 2742.03 563.301C2743.29 563.325 2744.55 563.083 2745.73 562.59ZM2879.87 547.104C2894.91 501.92 2892.83 452.606 2874.05 408.914C2873.59 407.729 2872.9 406.65 2872.03 405.742C2871.15 404.833 2870.11 404.113 2868.96 403.624C2867.81 403.136 2866.58 402.888 2865.33 402.896C2864.08 402.905 2862.85 403.168 2861.71 403.672C2859.36 404.815 2857.52 406.83 2856.57 409.308C2855.62 411.786 2855.62 414.541 2856.58 417.015C2872.83 456.081 2874.65 499.856 2861.71 540.194C2830.5 620.487 2805.58 670.044 2786.25 685.293C2762.96 704.591 2683.55 721.985 2611.35 686.484C2609.95 685.293 2607.86 684.34 2605.3 682.672C2597.33 677.853 2588.69 674.317 2579.68 672.189C2578.45 671.873 2577.18 671.816 2575.93 672.02C2574.68 672.224 2573.49 672.686 2572.42 673.377C2571.36 674.068 2570.44 674.973 2569.72 676.039C2569.01 677.104 2568.51 678.307 2568.27 679.575C2567.81 682.153 2568.29 684.812 2569.62 687.051C2570.96 689.289 2573.04 690.952 2575.49 691.725C2582.71 693.251 2589.58 696.162 2595.75 700.303L2604.13 704.591C2688.2 746.048 2774.61 721.984 2799.99 700.779C2825.37 679.574 2847.73 633.829 2881.04 547.104M2813.5 407.008C2818.03 406.822 2822.3 404.816 2825.4 401.427C2828.49 398.038 2830.16 393.537 2830.03 388.9C2830.11 385.096 2829.05 381.358 2827.01 378.179C2834.93 380.064 2842.72 382.532 2850.29 385.565C2851.36 386.205 2852.55 386.603 2853.78 386.731C2855.01 386.859 2856.25 386.714 2857.42 386.308C2858.6 385.901 2859.67 385.241 2860.57 384.373C2861.47 383.505 2862.17 382.448 2862.64 381.276C2863.27 380.148 2863.66 378.898 2863.79 377.606C2863.92 376.313 2863.78 375.006 2863.39 373.772C2862.99 372.537 2862.35 371.401 2861.5 370.436C2860.64 369.472 2859.61 368.7 2858.45 368.172C2838.51 358.095 2815.71 355.644 2794.17 361.262C2787.72 363.835 2781.82 367.685 2776.83 372.591C2771.83 377.497 2767.83 383.363 2765.06 389.854C2764.1 392.327 2764.09 395.083 2765.04 397.561C2765.99 400.039 2767.83 402.053 2770.18 403.196C2771.34 403.704 2772.59 403.972 2773.85 403.983C2775.12 403.994 2776.37 403.749 2777.54 403.261C2778.71 402.774 2779.77 402.054 2780.67 401.143C2781.56 400.232 2782.27 399.148 2782.76 397.954C2785.49 390.673 2790.82 384.717 2797.66 381.276C2796.71 383.698 2796.23 386.29 2796.26 388.9C2796.13 393.459 2797.74 397.892 2800.73 401.268C2803.73 404.645 2807.89 406.702 2812.33 407.008M3112.53 848.023C3121.99 840.623 3128.33 829.794 3130.23 817.764C3130.23 812.998 3130.23 809.187 3130.23 805.374C3131.04 797.001 3129.21 788.582 3125.03 781.341C3120.84 774.099 3114.5 768.413 3106.94 765.109C3101.81 761.773 3099.02 760.344 3099.02 756.055C3099.46 752.156 3100.56 748.366 3102.28 744.857C3104.3 738.88 3105.33 732.598 3105.31 726.273C3105.49 719.278 3104.06 712.338 3101.12 706.021C3091.75 689.478 3077.59 676.324 3060.59 668.376C3074.56 647.157 3082.61 622.447 3083.88 596.899C3084.1 592.932 3084.1 588.954 3083.88 584.986C3081.19 555.03 3067.04 527.372 3044.52 508.029C3033.11 496.831 3027.29 491.113 3027.29 478.724C3027.29 471.814 3027.29 463.237 3029.39 454.898C3029.39 441.079 3032.41 425.592 3032.41 409.867C3034.07 394.464 3031.84 378.883 3025.92 364.616C3020.01 350.349 3010.62 337.873 2998.64 328.383C3005.42 314.523 3009.15 299.318 3009.59 283.829C3009.85 275.038 3008.1 266.307 3004.47 258.336C3000.3 250.251 2994.41 243.227 2987.24 237.784C2980.06 232.34 2971.78 228.616 2963.01 226.886C2959.29 216.602 2957.55 205.68 2957.89 194.721C2957.89 188.764 2957.89 182.57 2955.79 175.661C2953.84 167.737 2950.17 160.366 2945.05 154.095C2939.93 147.825 2933.49 142.817 2926.22 139.445C2917.44 135.206 2907.68 133.556 2898.04 134.68C2892.91 93.7 2879.41 87.0287 2859.14 84.6461C2845.36 83.6027 2832.43 77.4125 2822.81 67.2531C2818.17 61.3658 2812.21 56.696 2805.45 53.6301C2798.69 50.5641 2791.31 49.1902 2783.92 49.6223C2775.11 50.764 2766.92 54.8707 2760.63 61.2966C2751.59 52.9211 2739.98 48.0344 2727.8 47.478C2721.08 47.7549 2714.5 49.5162 2708.51 52.6419C2702.52 55.7677 2697.26 60.1832 2693.1 65.5851C2691.5 67.5186 2690.63 69.9661 2690.63 72.4948C2690.63 75.0234 2691.5 77.4709 2693.1 79.4044C2695.15 81.131 2697.78 81.9716 2700.43 81.7493C2703.09 81.527 2705.55 80.2588 2707.3 78.2127C2709.47 75.0314 2712.32 72.3931 2715.62 70.4952C2718.93 68.5973 2722.61 67.4891 2726.4 67.2531C2736.77 68.9203 2746.29 74.1258 2753.41 82.0249C2754.33 83.2345 2755.55 84.1638 2756.95 84.7101C2758.34 85.2564 2759.86 85.3987 2761.33 85.1224C2762.92 85.1561 2764.49 84.7265 2765.85 83.8826C2767.21 83.0388 2768.31 81.8162 2769.02 80.3577C2770.7 77.4709 2772.96 74.9802 2775.65 73.0503C2778.34 71.1203 2781.39 69.7947 2784.62 69.1595C2791.37 69.1595 2798.59 72.4951 2807.91 81.0724C2820.36 94.1597 2836.78 102.556 2854.49 104.898C2862.87 104.898 2866.83 107.042 2869.62 110.616C2875.94 122.355 2879.15 135.577 2878.94 148.975C2878.97 150.528 2879.42 152.042 2880.24 153.347C2881.06 154.652 2882.23 155.696 2883.6 156.362C2884.99 157.275 2886.6 157.76 2888.26 157.76C2889.91 157.76 2891.52 157.275 2892.91 156.362C2896.51 154.441 2900.5 153.437 2904.56 153.437C2908.61 153.437 2912.61 154.441 2916.2 156.362C2920.76 158.258 2924.83 161.198 2928.1 164.957C2931.37 168.716 2933.75 173.193 2935.07 178.043C2935.07 183.999 2936.46 189.241 2936.93 195.197C2937.43 209.195 2940.84 222.923 2946.94 235.463C2947.51 236.872 2948.44 238.1 2949.62 239.021C2950.81 239.942 2952.22 240.523 2953.7 240.704C2960.41 241.566 2966.84 243.99 2972.49 247.79C2978.14 251.59 2982.86 256.664 2986.3 262.624C2989.16 272.822 2989.77 283.544 2988.08 294.011C2986.39 304.479 2982.44 314.43 2976.52 323.142C2975.99 324.425 2975.72 325.801 2975.72 327.192C2975.72 328.583 2975.99 329.96 2976.52 331.243C2976.82 332.568 2977.45 333.791 2978.34 334.793C2979.24 335.795 2980.38 336.542 2981.64 336.96C3019.14 354.592 3013.78 406.055 3009.59 447.988C3009.59 457.519 3007.73 467.049 3007.03 474.673C3007.26 483.506 3009.48 492.165 3013.52 499.976C3017.56 507.786 3023.31 514.538 3030.32 519.704C3040.04 527.673 3048.05 537.601 3053.86 548.873C3059.67 560.144 3063.15 572.519 3064.09 585.225C3064.62 613.81 3055.58 641.72 3038.47 664.326C3037.52 665.6 3036.84 667.065 3036.48 668.625C3036.12 670.185 3036.08 671.805 3036.37 673.38C3037.57 676.276 3039.83 678.582 3042.66 679.812C3059.57 685.713 3074.02 697.304 3083.65 712.692C3085.4 716.407 3086.31 720.479 3086.31 724.605C3086.31 728.73 3085.4 732.803 3083.65 736.518C3073.17 764.156 3083.65 773.209 3097.16 780.595C3110.66 787.981 3113.23 790.126 3109.97 813.714C3109.62 817.206 3108.51 820.576 3106.74 823.583C3104.97 826.589 3102.57 829.158 3099.72 831.106C3072.7 851.834 3004 847.546 2979.78 843.972C2978.21 843.868 2976.63 844.137 2975.18 844.757C2973.73 845.376 2972.43 846.331 2971.4 847.546C2970.32 848.646 2969.55 850.026 2969.18 851.537C2968.82 853.048 2968.86 854.634 2969.3 856.123C2970.68 860.157 2970.98 864.497 2970.16 868.689C2969.34 872.881 2967.44 876.77 2964.64 879.949C2958.48 884.914 2951.3 888.392 2943.64 890.124C2935.97 891.857 2928.03 891.799 2920.39 889.955C2918.73 889.605 2917.01 889.683 2915.38 890.182C2913.76 890.681 2912.28 891.586 2911.08 892.814C2910.02 894.026 2909.27 895.489 2908.91 897.07C2908.54 898.651 2908.57 900.3 2908.98 901.868C2912.71 918.308 2908.98 929.506 2900.83 934.748C2896.19 937.334 2890.98 938.688 2885.69 938.688C2880.41 938.688 2875.2 937.334 2870.56 934.748C2867.75 931.595 2865.82 927.727 2864.97 923.55C2864.36 919.688 2862.91 916.015 2860.74 912.8C2858.56 909.584 2855.71 906.907 2852.39 904.966C2849.05 903.449 2845.45 902.665 2841.79 902.665C2838.14 902.665 2834.53 903.449 2831.2 904.966C2816.53 910.922 2810.24 909.255 2807.91 907.587C2806.01 905.855 2804.51 903.721 2803.51 901.335C2802.5 898.948 2802.02 896.366 2802.09 893.768C2801.95 891.782 2801.17 889.901 2799.86 888.43C2798.55 886.959 2796.79 885.985 2794.87 885.667C2793.24 885.667 2776.47 880.902 2773.91 852.073C2775.11 826.922 2786 803.28 2804.18 786.313L2808.84 780.357L2810.24 778.213C2818.32 770.258 2823.55 759.744 2825.07 748.372C2826.6 737.001 2824.32 725.437 2818.62 715.551C2817.16 713.384 2814.92 711.894 2812.39 711.404C2809.87 710.913 2807.25 711.462 2805.11 712.93C2803.69 713.654 2802.49 714.777 2801.67 716.169C2800.84 717.561 2800.42 719.165 2800.46 720.793C2800.34 722.687 2800.92 724.556 2802.09 726.034C2804.9 730.534 2806.5 735.71 2806.74 741.045C2805.5 750.021 2801.5 758.362 2795.33 764.87L2793.24 767.492L2789.51 771.78C2769.52 791.685 2757.06 818.188 2754.34 846.592C2754.34 848.737 2754.34 850.405 2754.34 852.549C2754.18 862.734 2756.88 872.754 2762.12 881.413C2767.37 890.073 2774.93 897.008 2783.92 901.392C2784.5 905.888 2786.01 910.208 2788.33 914.068C2790.66 917.928 2793.76 921.241 2797.43 923.788C2803.87 926.654 2810.86 927.992 2817.88 927.703C2824.89 927.414 2831.76 925.506 2837.95 922.12C2839.8 921.836 2841.69 921.836 2843.54 922.12C2844.61 924.364 2845.54 926.672 2846.34 929.03C2848.13 936.163 2851.66 942.718 2856.58 948.09C2864.34 953.672 2873.47 956.921 2882.93 957.468C2892.4 958.016 2901.83 955.84 2910.15 951.188C2916.33 947.467 2921.38 942.072 2924.75 935.596C2928.12 929.121 2929.68 921.818 2929.24 914.496C2929.46 913.075 2929.46 911.628 2929.24 910.207C2938.17 911.009 2947.16 909.92 2955.65 907.01C2964.15 904.099 2971.96 899.429 2978.62 893.291C2985.76 885.775 2989.7 875.663 2989.56 865.177C3016.58 867.798 3080.39 870.895 3111.59 846.592M2619.73 356.498C2606.95 355.01 2594.01 357.265 2582.43 363.001C2570.84 368.737 2561.09 377.718 2554.29 388.9C2553.24 391.31 2553.14 394.043 2554 396.528C2554.87 399.014 2556.64 401.061 2558.95 402.243C2560.11 402.841 2561.37 403.192 2562.66 403.275C2563.96 403.358 2565.25 403.171 2566.47 402.726C2567.69 402.28 2568.81 401.585 2569.76 400.682C2570.71 399.78 2571.47 398.69 2571.99 397.478C2575.92 389.941 2582.37 384.105 2590.16 381.038C2589.91 382.776 2589.91 384.542 2590.16 386.28C2590.03 391.043 2591.75 395.664 2594.93 399.143C2598.11 402.622 2602.51 404.678 2607.16 404.864C2611.83 404.678 2616.25 402.63 2619.47 399.158C2622.69 395.686 2624.46 391.065 2624.39 386.28C2624.27 382.793 2623.39 379.376 2621.83 376.273C2629.02 376.475 2636 378.843 2641.88 383.081C2647.76 387.32 2652.29 393.239 2654.9 400.099C2655.85 402.575 2657.65 404.605 2659.98 405.793C2662.3 406.982 2664.98 407.245 2667.48 406.532C2669.9 405.566 2671.88 403.715 2673.04 401.338C2674.2 398.96 2674.46 396.226 2673.77 393.666C2672.93 391.865 2672 390.115 2670.97 388.424C2676.89 378.977 2679.45 367.732 2678.22 356.581C2676.99 345.429 2672.05 335.051 2664.22 327.192C2640.93 300.269 2595.75 311.467 2563.61 319.33C2562.38 319.66 2561.22 320.239 2560.21 321.033C2559.2 321.826 2558.36 322.818 2557.73 323.95C2557.1 325.082 2556.7 326.331 2556.55 327.624C2556.4 328.918 2556.5 330.229 2556.86 331.48C2557.11 332.753 2557.6 333.963 2558.31 335.038C2559.02 336.113 2559.93 337.033 2561 337.743C2562.06 338.453 2563.25 338.938 2564.5 339.172C2565.75 339.406 2567.03 339.383 2568.27 339.105C2595.75 331.48 2633.71 322.427 2650.24 341.011C2654.14 344.73 2656.95 349.488 2658.35 354.749C2659.74 360.01 2659.68 365.567 2658.16 370.793C2647.11 362.473 2633.91 357.667 2620.2 356.974M2829.8 945.946C2828.57 946.188 2827.4 946.694 2826.38 947.432C2825.35 948.17 2824.49 949.123 2823.85 950.227C2823.21 951.33 2822.81 952.56 2822.67 953.835C2822.53 955.11 2822.66 956.4 2823.05 957.62C2830.73 990.976 2829.8 1005.27 2818.86 1009.56C2797.43 1020.28 2735.25 1026 2660.26 1025.05C2615.43 1026.46 2570.65 1021.25 2527.28 1009.56C2554.72 930.038 2573.93 847.784 2584.57 764.156L2587.13 742.951C2606.8 750.348 2626.96 756.319 2647.45 760.82C2648.94 768.186 2649.64 775.696 2649.55 783.217C2648.82 806.181 2646.88 829.087 2643.72 851.834C2638.88 889.69 2636.09 927.789 2635.34 965.96C2635.34 975.013 2635.34 983.591 2636.5 992.168C2636.47 993.471 2636.7 994.766 2637.18 995.972C2637.67 997.177 2638.4 998.264 2639.32 999.163C2640.24 1000.06 2641.34 1000.75 2642.54 1001.19C2643.74 1001.63 2645.01 1001.8 2646.28 1001.7C2648.84 1001.57 2651.24 1000.43 2652.98 998.519C2654.72 996.604 2655.66 994.068 2655.6 991.453C2654.16 945.652 2656.65 899.81 2663.05 854.455C2668.18 808.233 2672.37 772.018 2663.05 748.669C2662.51 747.042 2661.56 745.589 2660.29 744.46C2659.02 743.33 2657.48 742.564 2655.83 742.236C2630.57 736.749 2605.73 729.342 2581.54 720.078C2580.21 719.259 2578.68 718.827 2577.12 718.827C2575.56 718.827 2574.03 719.259 2572.69 720.078C2571.44 720.891 2570.37 721.972 2569.57 723.247C2568.77 724.523 2568.24 725.961 2568.03 727.464C2568.03 727.464 2564.77 761.059 2564.77 761.535C2553.49 845.109 2534.06 927.32 2506.78 1006.94C2506.47 1008.35 2506.47 1009.82 2506.78 1011.23C2506.76 1013.39 2507.23 1015.54 2508.16 1017.48C2509.09 1019.43 2510.45 1021.12 2512.14 1022.43C2531.24 1040.06 2629.98 1043.63 2660.03 1044.35C2690.07 1045.06 2790.44 1044.35 2827.47 1027.19C2856.58 1012.9 2846.57 975.251 2841.44 952.379C2841.12 951.119 2840.56 949.938 2839.78 948.905C2839 947.873 2838.04 947.009 2836.93 946.366C2835.82 945.722 2834.6 945.311 2833.34 945.157C2832.07 945.003 2830.79 945.11 2829.57 945.47M2788.35 739.615C2787.37 737.263 2785.53 735.397 2783.22 734.417C2780.91 733.437 2778.32 733.421 2776 734.373C2749.12 743.783 2720.79 748.142 2692.4 747.24C2689.86 747.24 2687.43 748.269 2685.64 750.101C2683.85 751.933 2682.85 754.417 2682.85 757.008C2682.85 759.599 2683.85 762.084 2685.64 763.916C2687.43 765.748 2689.86 766.777 2692.4 766.777C2723.24 767.874 2754.02 763.19 2783.22 752.958C2785.57 751.815 2787.41 749.8 2788.36 747.322C2789.31 744.845 2789.31 742.089 2788.35 739.615ZM2772.74 318.376C2764.19 322.797 2756.8 329.262 2751.2 337.226C2745.61 345.189 2741.97 354.415 2740.6 364.121C2740.24 394.016 2747.03 423.547 2760.4 450.133C2768.55 469.908 2776.93 490.636 2771.81 497.784C2766.69 504.932 2760.4 508.029 2744.33 504.694C2729.94 500.785 2714.67 501.96 2701.01 508.029C2696 510.059 2690.42 510.059 2685.41 508.029C2682.98 506.282 2681.3 503.632 2680.75 500.643C2681.92 499.658 2682.86 498.421 2683.5 497.02C2684.15 495.619 2684.48 494.09 2684.48 492.542C2684.48 489.889 2683.45 487.343 2681.61 485.466C2679.78 483.59 2677.29 482.535 2674.7 482.535C2673.41 482.45 2672.12 482.688 2670.94 483.228C2669.77 483.767 2668.74 484.593 2667.94 485.633C2666.02 487.161 2664.46 489.111 2663.37 491.337C2662.29 493.563 2661.7 496.01 2661.66 498.499C2661.52 503.29 2662.48 508.048 2664.46 512.392C2666.44 516.735 2669.39 520.545 2673.07 523.516C2678.15 526.987 2684.04 529.015 2690.13 529.391C2696.23 529.768 2702.32 528.481 2707.77 525.661C2717.91 521.044 2729.36 520.449 2739.91 523.993C2748.33 527.223 2757.58 527.348 2766.09 524.347C2774.59 521.347 2781.8 515.408 2786.48 507.553C2789.44 502.617 2790.9 496.896 2790.68 491.113C2788.79 473.905 2784.06 457.148 2776.7 441.555C2766.21 420.114 2759.81 396.828 2757.84 372.938V365.552C2758.91 358.892 2761.44 352.564 2765.23 347.038C2769.02 341.512 2773.97 336.927 2779.73 333.625C2807.21 320.52 2849.6 340.534 2849.6 340.534C2851.34 341.484 2853.33 341.857 2855.29 341.601C2857.25 341.345 2859.09 340.473 2860.54 339.105C2862 337.81 2863.04 336.083 2863.49 334.162C2863.95 332.241 2863.82 330.221 2863.1 328.383C2853.81 303.478 2848.16 277.306 2846.34 250.711C2846.22 248.141 2845.13 245.716 2843.31 243.941C2841.49 242.167 2839.07 241.178 2836.55 241.181C2834.04 241.416 2831.7 242.59 2829.98 244.481C2828.26 246.371 2827.29 248.845 2827.24 251.426C2828.55 273.255 2832.38 294.848 2838.65 315.755C2817.24 307.174 2793.45 307.174 2772.04 315.755M2552.43 257.859C2564.46 258.576 2576.46 256.101 2587.27 250.674C2598.08 245.247 2607.34 237.053 2614.15 226.886C2625.97 239.791 2641.74 248.194 2658.86 250.711C2675.69 249.544 2691.41 241.675 2702.64 228.791C2715.51 240.697 2731.91 247.83 2749.22 249.043C2757.54 248.678 2765.66 246.334 2772.93 242.198C2780.21 238.062 2786.44 232.248 2791.14 225.218C2796.84 230.298 2803.09 234.694 2809.77 238.322C2810.85 238.996 2812.05 239.439 2813.3 239.624C2814.55 239.809 2815.82 239.731 2817.04 239.397C2818.26 239.063 2819.4 238.478 2820.39 237.679C2821.39 236.88 2822.21 235.883 2822.81 234.748C2824.08 232.505 2824.42 229.839 2823.77 227.337C2823.11 224.834 2821.51 222.701 2819.32 221.406C2811.11 217.738 2804.21 211.584 2799.53 203.775C2798.64 202.244 2797.38 200.975 2795.87 200.094C2794.36 199.213 2792.65 198.75 2790.91 198.75C2789.17 198.75 2787.46 199.213 2785.95 200.094C2784.44 200.975 2783.18 202.244 2782.29 203.775C2772.51 221.406 2761.56 229.268 2749.22 229.268C2733.59 227.309 2719.06 220.004 2708 208.539C2707 207.506 2705.8 206.697 2704.48 206.164C2703.15 205.631 2701.74 205.385 2700.31 205.443C2698.88 205.568 2697.48 206.018 2696.24 206.76C2694.99 207.501 2693.91 208.516 2693.1 209.731C2689 215.414 2683.84 220.213 2677.93 223.852C2672.01 227.491 2665.46 229.898 2658.63 230.936C2643.36 227.438 2629.77 218.588 2620.2 205.919C2619.3 204.717 2618.13 203.746 2616.8 203.085C2615.46 202.423 2614 202.088 2612.52 202.107C2610.96 202.125 2609.43 202.523 2608.05 203.269C2606.67 204.015 2605.49 205.087 2604.6 206.395C2598.54 215.926 2581.31 238.322 2561.51 239.513C2549.8 185.216 2534.23 131.864 2514.94 79.8807H2520.06C2527.25 79.4187 2534.43 80.7875 2540.98 83.8645C2547.52 86.9414 2553.22 91.6309 2557.55 97.5122C2558.59 99.0165 2560 100.208 2561.64 100.963C2563.28 101.718 2565.08 102.007 2566.87 101.801C2568.6 101.308 2570.21 100.435 2571.58 99.2413C2572.94 98.0478 2574.04 96.5631 2574.79 94.891C2577.82 84.1694 2602.27 71.0652 2627.65 72.4948C2638.28 73.613 2648.46 77.452 2657.25 83.6565C2666.04 89.8611 2673.16 98.2311 2677.96 107.995C2679.15 110.314 2681.18 112.063 2683.62 112.865C2686.06 113.667 2688.71 113.459 2691 112.284C2693.26 110.937 2694.92 108.736 2695.62 106.152C2696.31 103.569 2695.99 100.809 2694.73 98.4647C2688.31 85.6967 2678.84 74.8023 2667.19 66.8015C2655.54 58.8008 2642.1 53.9559 2628.12 52.7197C2604.62 51.8178 2581.71 60.3711 2564.31 76.5454C2557.93 70.9615 2550.52 66.7361 2542.52 64.1178C2534.52 61.4994 2526.09 60.5403 2517.73 61.2966C2511.74 61.9822 2505.82 63.1775 2500.03 64.8703C2498.97 65.0965 2497.94 65.4993 2497 66.0621C2495.73 66.9209 2494.68 68.0874 2493.95 69.4584C2493.22 70.8294 2492.83 72.3626 2492.81 73.9242C2492.54 75.3404 2492.54 76.7965 2492.81 78.2127C2492.81 78.2127 2492.81 78.2127 2493.98 78.2127C2515.59 134.035 2532.73 191.566 2545.21 250.234C2545.75 252.113 2546.76 253.81 2548.15 255.151C2549.55 256.492 2551.26 257.427 2553.13 257.859M2759.93 991.692C2760.44 992.835 2761.16 993.865 2762.05 994.724C2762.94 995.582 2763.99 996.252 2765.14 996.694C2766.29 997.137 2767.51 997.344 2768.73 997.304C2769.96 997.263 2771.16 996.975 2772.28 996.457C2774.59 995.408 2776.42 993.481 2777.38 991.082C2778.33 988.682 2778.34 985.996 2777.4 983.59C2773.13 967.202 2771.17 950.274 2771.58 933.318V928.553C2771.55 927.27 2771.27 926.006 2770.76 924.832C2770.25 923.659 2769.53 922.6 2768.62 921.715C2767.71 920.83 2766.64 920.136 2765.47 919.674C2764.3 919.213 2763.05 918.991 2761.8 919.023C2759.24 919.085 2756.81 920.167 2755.03 922.037C2753.25 923.907 2752.25 926.417 2752.25 929.03V933.318C2751.1 954.178 2753.63 975.079 2759.7 995.027" fill="#F0E5E9"/>
<path d="M1391.78 321.707C1387.91 321.674 1384.16 320.352 1381.09 317.943C1378.02 315.533 1375.8 312.167 1374.77 308.353L1358.15 262.223H1239.44L1222.82 308.353C1221.99 312.204 1219.88 315.644 1216.85 318.08C1213.82 320.516 1210.05 321.798 1206.2 321.707C1204.07 321.931 1201.93 321.703 1199.9 321.036C1197.87 320.37 1195.99 319.279 1194.39 317.834C1192.79 316.389 1191.51 314.62 1190.61 312.64C1189.71 310.66 1189.23 308.511 1189.18 306.33C1189.76 301.47 1190.96 296.709 1192.74 292.167V289.334L1271.88 70.0137C1277.42 56.6602 1285.34 49.3761 1296.81 49.3761C1302.48 49.5463 1307.91 51.6834 1312.23 55.4345C1316.54 59.1855 1319.48 64.3274 1320.56 70.0137L1399.69 292.167C1401.67 296.644 1402.87 301.435 1403.26 306.33C1403.27 308.493 1402.83 310.633 1401.98 312.613C1401.13 314.592 1399.88 316.367 1398.31 317.818C1396.74 319.269 1394.89 320.365 1392.88 321.035C1390.87 321.705 1388.74 321.934 1386.64 321.707M1246.16 230.66H1342.32L1294.84 92.674L1246.16 230.66ZM1620.5 321.707C1631.97 321.707 1637.11 315.637 1637.11 301.069V68.3947C1637.5 65.8037 1637.32 63.1595 1636.61 60.642C1635.9 58.1245 1634.67 55.7937 1633 53.8081C1631.33 51.8225 1629.26 50.2287 1626.93 49.1365C1624.6 48.0442 1622.07 47.478 1619.51 47.478C1616.94 47.478 1614.41 48.0442 1612.08 49.1365C1609.76 50.2287 1607.68 51.8225 1606.01 53.8081C1604.34 55.7937 1603.11 58.1245 1602.4 60.642C1601.69 63.1595 1601.52 65.8037 1601.9 68.3947V256.962L1472.9 67.1808C1463.4 53.8273 1459.05 49.3761 1449.16 49.3761C1439.26 49.3761 1432.54 56.6602 1432.54 70.0137V303.092C1432.16 305.683 1432.33 308.328 1433.04 310.846C1433.75 313.363 1434.98 315.694 1436.65 317.68C1438.32 319.665 1440.39 321.259 1442.72 322.351C1445.05 323.444 1447.59 324.009 1450.15 324.009C1452.71 324.009 1455.24 323.444 1457.57 322.351C1459.9 321.259 1461.97 319.665 1463.64 317.68C1465.31 315.694 1466.55 313.363 1467.26 310.846C1467.97 308.328 1468.14 305.683 1467.76 303.092V115.334L1596.75 303.902C1605.46 317.255 1610.6 321.707 1620.5 321.707ZM1745.93 321.707C1748.32 321.835 1750.71 321.434 1752.93 320.532C1755.15 319.631 1757.16 318.249 1758.81 316.482C1760.46 314.715 1761.73 312.603 1762.51 310.293C1763.29 307.982 1763.57 305.526 1763.34 303.092V86.1995H1810.04C1812.46 86.5809 1814.94 86.4217 1817.3 85.7327C1819.65 85.0437 1821.84 83.8418 1823.7 82.2083C1825.56 80.5748 1827.06 78.5478 1828.08 76.2684C1829.11 73.989 1829.64 71.511 1829.64 69.0023C1829.64 66.4936 1829.11 64.0143 1828.08 61.7349C1827.06 59.4555 1825.56 57.4298 1823.7 55.7963C1821.84 54.1628 1819.65 52.9596 1817.3 52.2707C1814.94 51.5817 1812.46 51.4224 1810.04 51.8039H1686.58C1684.15 51.4224 1681.68 51.5817 1679.32 52.2707C1676.96 52.9596 1674.77 54.1628 1672.91 55.7963C1671.05 57.4298 1669.56 59.4555 1668.53 61.7349C1667.51 64.0143 1666.98 66.4936 1666.98 69.0023C1666.98 71.511 1667.51 73.989 1668.53 76.2684C1669.56 78.5478 1671.05 80.5748 1672.91 82.2083C1674.77 83.8418 1676.96 85.0437 1679.32 85.7327C1681.68 86.4217 1684.15 86.5809 1686.58 86.1995H1734.06V303.902C1733.82 306.372 1734.12 308.865 1734.92 311.206C1735.73 313.548 1737.02 315.681 1738.72 317.455C1740.42 319.229 1742.47 320.601 1744.75 321.476C1747.02 322.35 1749.45 322.705 1751.87 322.516M1949.72 322.516C1874.14 322.516 1835.36 254.13 1835.36 186.553C1835.36 118.977 1874.93 50.1849 1949.72 50.1849C2024.51 50.1849 2065.66 118.572 2065.66 186.553C2067.17 203.348 2065.34 220.281 2060.27 236.33C2055.2 252.378 2046.99 267.208 2036.15 279.919C2025.31 292.63 2012.06 302.96 1997.21 310.281C1982.35 317.603 1966.19 321.766 1949.72 322.516ZM1949.72 81.7489C1892.34 81.7489 1870.58 135.972 1870.58 186.553C1870.58 237.135 1890.76 290.953 1949.72 290.953C2008.68 290.953 2028.86 236.73 2028.86 186.553C2028.86 136.377 2008.28 81.7489 1949.72 81.7489ZM2293.98 322.516C2304.66 322.516 2309.8 316.445 2309.8 301.878V69.2036C2310.1 66.7382 2309.86 64.2376 2309.1 61.8769C2308.35 59.5162 2307.1 57.3537 2305.44 55.5407C2303.78 53.7276 2301.75 52.3079 2299.5 51.3828C2297.24 50.4576 2294.82 50.0485 2292.39 50.1849C2289.95 50.0576 2287.52 50.4693 2285.25 51.3914C2282.98 52.3136 2280.92 53.7251 2279.24 55.5296C2277.55 57.334 2276.26 59.4889 2275.46 61.8485C2274.65 64.2081 2274.36 66.7166 2274.59 69.2036V257.771L2145.98 67.9897C2136.88 54.6362 2132.53 50.1849 2121.85 50.1849C2111.16 50.1849 2106.02 57.469 2106.02 70.8225V303.902C2105.78 306.372 2106.07 308.865 2106.88 311.206C2107.68 313.548 2108.98 315.681 2110.68 317.455C2112.38 319.229 2114.43 320.601 2116.7 321.476C2118.97 322.35 2121.4 322.705 2123.82 322.516C2126.21 322.643 2128.6 322.243 2130.82 321.341C2133.05 320.44 2135.05 319.058 2136.7 317.291C2138.36 315.524 2139.62 313.413 2140.4 311.103C2141.18 308.792 2141.47 306.336 2141.24 303.902V116.143L2270.23 304.711C2278.94 318.064 2283.69 322.516 2293.98 322.516ZM2379.84 322.516C2382.25 322.716 2384.67 322.365 2386.92 321.488C2389.18 320.611 2391.21 319.231 2392.88 317.448C2394.55 315.664 2395.81 313.522 2396.56 311.179C2397.32 308.836 2397.56 306.35 2397.25 303.902V69.2036C2397.63 66.6683 2397.47 64.08 2396.78 61.6151C2396.08 59.1502 2394.88 56.8681 2393.25 54.9232C2391.61 52.9784 2389.59 51.4167 2387.31 50.3467C2385.03 49.2767 2382.55 48.7228 2380.04 48.7228C2377.53 48.7228 2375.06 49.2767 2372.78 50.3467C2370.5 51.4167 2368.47 52.9784 2366.84 54.9232C2365.2 56.8681 2364 59.1502 2363.31 61.6151C2362.61 64.08 2362.45 66.6683 2362.83 69.2036V303.902C2362.53 306.314 2362.76 308.762 2363.5 311.074C2364.23 313.386 2365.45 315.505 2367.07 317.281C2368.7 319.057 2370.68 320.446 2372.89 321.351C2375.1 322.256 2377.47 322.653 2379.84 322.516ZM197.56 1041.18C201.577 1040.54 205.241 1038.46 207.887 1035.31C210.533 1032.15 211.988 1028.13 211.988 1023.98C211.988 1019.82 210.533 1015.8 207.887 1012.65C205.241 1009.49 201.577 1007.41 197.56 1006.78H130.686V789.483C130.686 787.092 130.226 784.724 129.332 782.515C128.437 780.305 127.126 778.298 125.472 776.607C123.819 774.916 121.855 773.575 119.695 772.66C117.535 771.745 115.22 771.273 112.882 771.273C110.544 771.273 108.227 771.745 106.066 772.66C103.906 773.575 101.943 774.916 100.289 776.607C98.6358 778.298 97.3247 780.305 96.4299 782.515C95.535 784.724 95.0749 787.092 95.0749 789.483V1021.35C94.7759 1023.96 95.045 1026.6 95.8623 1029.09C96.6796 1031.58 98.024 1033.85 99.8014 1035.75C101.579 1037.64 103.743 1039.11 106.141 1040.05C108.539 1040.99 111.111 1041.37 113.672 1041.18H197.56ZM351.091 1041.18C353.516 1041.56 355.992 1041.4 358.351 1040.71C360.71 1040.02 362.897 1038.82 364.759 1037.18C366.621 1035.55 368.115 1033.52 369.14 1031.25C370.164 1028.97 370.695 1026.49 370.695 1023.98C370.695 1021.47 370.164 1018.99 369.14 1016.71C368.115 1014.43 366.621 1012.41 364.759 1010.77C362.897 1009.14 360.71 1007.94 358.351 1007.25C355.992 1006.56 353.516 1006.4 351.091 1006.78H276.304V923.828H345.157C349.174 923.196 352.836 921.114 355.482 917.959C358.129 914.805 359.583 910.786 359.583 906.629C359.583 902.473 358.129 898.455 355.482 895.3C352.836 892.146 349.174 890.064 345.157 889.432H276.304V806.478H351.091C353.516 806.859 355.992 806.7 358.351 806.011C360.71 805.322 362.897 804.12 364.759 802.487C366.621 800.853 368.115 798.827 369.14 796.548C370.164 794.269 370.695 791.789 370.695 789.281C370.695 786.772 370.164 784.293 369.14 782.013C368.115 779.734 366.621 777.708 364.759 776.075C362.897 774.441 360.71 773.239 358.351 772.55C355.992 771.861 353.516 771.702 351.091 772.084H259.289C256.745 771.957 254.206 772.39 251.84 773.353C249.475 774.316 247.338 775.787 245.576 777.666C243.813 779.546 242.464 781.789 241.622 784.246C240.779 786.703 240.463 789.318 240.692 791.911V1021.35C240.393 1023.96 240.662 1026.6 241.479 1029.09C242.297 1031.58 243.641 1033.85 245.419 1035.75C247.196 1037.64 249.363 1039.11 251.761 1040.05C254.159 1040.99 256.728 1041.37 259.289 1041.18H351.091ZM516.89 1041.18C519.314 1041.56 521.791 1041.4 524.15 1040.71C526.508 1040.02 528.695 1038.82 530.557 1037.18C532.419 1035.55 533.913 1033.52 534.938 1031.25C535.963 1028.97 536.493 1026.49 536.493 1023.98C536.493 1021.47 535.963 1018.99 534.938 1016.71C533.913 1014.43 532.419 1012.41 530.557 1010.77C528.695 1009.14 526.508 1007.94 524.15 1007.25C521.791 1006.56 519.314 1006.4 516.89 1006.78H441.312V923.828H510.163C514.18 923.196 517.844 921.114 520.491 917.959C523.137 914.805 524.592 910.786 524.592 906.629C524.592 902.473 523.137 898.455 520.491 895.3C517.844 892.146 514.18 890.064 510.163 889.432H441.312V806.478H516.89C519.314 806.859 521.791 806.7 524.15 806.011C526.508 805.322 528.695 804.12 530.557 802.487C532.419 800.853 533.913 798.827 534.938 796.548C535.963 794.269 536.493 791.789 536.493 789.281C536.493 786.772 535.963 784.293 534.938 782.013C533.913 779.734 532.419 777.708 530.557 776.075C528.695 774.441 526.508 773.239 524.15 772.55C521.791 771.861 519.314 771.702 516.89 772.084H424.297C421.754 771.957 419.212 772.39 416.846 773.353C414.481 774.316 412.344 775.787 410.582 777.666C408.819 779.546 407.47 781.789 406.628 784.246C405.785 786.703 405.469 789.318 405.698 791.911V1021.35C405.399 1023.96 405.668 1026.6 406.485 1029.09C407.303 1031.58 408.647 1033.85 410.425 1035.75C412.202 1037.64 414.369 1039.11 416.767 1040.05C419.165 1040.99 421.737 1041.37 424.297 1041.18H516.89ZM670.817 1041.18C684.911 1042.74 699.167 1040.99 712.498 1036.06C725.829 1031.13 737.879 1023.14 747.73 1012.72C757.581 1002.29 764.973 989.702 769.336 975.908C773.7 962.115 774.922 947.484 772.908 933.134V787.864C773.289 785.273 773.118 782.629 772.408 780.112C771.698 777.594 770.465 775.263 768.793 773.278C767.121 771.292 765.05 769.698 762.721 768.606C760.392 767.514 757.862 766.948 755.299 766.948C752.737 766.948 750.204 767.514 747.875 768.606C745.546 769.698 743.475 771.292 741.804 773.278C740.132 775.263 738.901 777.594 738.191 780.112C737.48 782.629 737.31 785.273 737.691 787.864V945.678C736.392 962.959 728.761 979.101 716.326 990.878C703.891 1002.65 687.568 1009.2 670.619 1009.2C653.671 1009.2 637.347 1002.65 624.912 990.878C612.477 979.101 604.847 962.959 603.548 945.678V787.864C603.898 785.457 603.726 782.999 603.043 780.667C602.36 778.335 601.185 776.187 599.599 774.372C598.013 772.557 596.055 771.121 593.865 770.166C591.676 769.211 589.308 768.76 586.929 768.846C584.472 768.647 582.004 769.009 579.701 769.906C577.398 770.804 575.316 772.214 573.612 774.035C571.908 775.855 570.621 778.041 569.844 780.433C569.068 782.825 568.821 785.363 569.122 787.864V935.967C567.121 950.28 568.338 964.871 572.68 978.631C577.022 992.391 584.374 1004.96 594.179 1015.37C603.984 1025.79 615.982 1033.78 629.262 1038.75C642.542 1043.71 656.755 1045.51 670.817 1044.01M1026.95 1044.01C1030.01 1044.23 1033.09 1043.83 1036.01 1042.83C1038.92 1041.83 1041.62 1040.25 1043.93 1038.18C1046.25 1036.11 1048.14 1033.59 1049.51 1030.78C1050.87 1027.96 1051.68 1024.89 1051.88 1021.75L1091.45 804.86C1091.76 799.2 1091.76 793.525 1091.45 787.864C1091.57 785.634 1091.22 783.403 1090.42 781.325C1089.62 779.248 1088.39 777.372 1086.8 775.831C1085.22 774.291 1083.33 773.122 1081.26 772.405C1079.2 771.687 1077 771.44 1074.83 771.678C1072.56 771.457 1070.27 771.703 1068.1 772.402C1065.93 773.101 1063.91 774.239 1062.18 775.749C1060.44 777.258 1059.03 779.108 1058 781.19C1056.98 783.271 1056.38 785.54 1056.23 787.864L1023.78 996.259L964.426 786.245C963.928 781.987 961.837 778.091 958.591 775.375C955.344 772.659 951.195 771.334 947.015 771.678C942.79 771.326 938.594 772.638 935.284 775.346C931.974 778.054 929.799 781.953 929.208 786.245L871.041 995.45L837.408 787.864C837.315 785.52 836.748 783.221 835.744 781.112C834.739 779.003 833.32 777.13 831.573 775.609C829.826 774.089 827.789 772.954 825.593 772.277C823.396 771.601 821.086 771.397 818.808 771.678C816.684 771.494 814.546 771.786 812.544 772.534C810.541 773.282 808.723 774.468 807.216 776.009C805.708 777.551 804.549 779.411 803.818 781.459C803.086 783.506 802.799 785.692 802.98 787.864C802.748 793.601 803.418 799.339 804.96 804.86L844.53 1021.75C844.937 1028.02 847.739 1033.86 852.331 1038.03C856.922 1042.19 862.934 1044.34 869.063 1044.01C882.517 1044.01 890.43 1040.77 895.574 1021.75L947.807 830.353L999.643 1021.75C1005.18 1040.77 1013.89 1044.01 1026.15 1044.01M1240.63 1044.01C1244.64 1043.38 1248.3 1041.3 1250.95 1038.14C1253.6 1034.99 1255.05 1030.97 1255.05 1026.81C1255.05 1022.65 1253.6 1018.64 1250.95 1015.48C1248.3 1012.33 1244.64 1010.25 1240.63 1009.61H1164.65V923.828H1233.5C1235.93 924.209 1238.4 924.05 1240.76 923.361C1243.12 922.672 1245.31 921.469 1247.17 919.835C1249.03 918.202 1250.52 916.176 1251.55 913.897C1252.57 911.617 1253.1 909.138 1253.1 906.629C1253.1 904.121 1252.57 901.641 1251.55 899.362C1250.52 897.082 1249.03 895.057 1247.17 893.423C1245.31 891.79 1243.12 890.588 1240.76 889.899C1238.4 889.21 1235.93 889.051 1233.5 889.432H1164.65V806.478H1240.63C1244.64 805.846 1248.3 803.765 1250.95 800.611C1253.6 797.456 1255.05 793.437 1255.05 789.281C1255.05 785.124 1253.6 781.105 1250.95 777.951C1248.3 774.796 1244.64 772.715 1240.63 772.084H1148.82C1146.23 771.904 1143.63 772.294 1141.2 773.227C1138.77 774.16 1136.56 775.614 1134.72 777.492C1132.89 779.371 1131.46 781.629 1130.55 784.116C1129.64 786.603 1129.26 789.261 1129.43 791.911V1021.35C1129.19 1024.01 1129.52 1026.7 1130.41 1029.22C1131.3 1031.74 1132.72 1034.03 1134.57 1035.92C1136.42 1037.82 1138.66 1039.27 1141.12 1040.18C1143.59 1041.08 1146.22 1041.43 1148.82 1041.18L1240.63 1044.01ZM1483.19 1044.01C1494.66 1044.01 1500.2 1037.94 1500.2 1023.37V790.697C1500.43 788.21 1500.14 785.702 1499.33 783.342C1498.53 780.982 1497.24 778.826 1495.56 777.022C1493.87 775.217 1491.81 773.807 1489.54 772.885C1487.27 771.963 1484.84 771.551 1482.4 771.678C1479.97 771.542 1477.55 771.951 1475.29 772.876C1473.04 773.801 1471.01 775.22 1469.35 777.033C1467.69 778.846 1466.44 781.009 1465.69 783.369C1464.93 785.73 1464.69 788.232 1464.99 790.697V976.432L1338.36 788.269C1328.47 774.916 1324.12 770.465 1314.62 770.465C1305.12 770.465 1297.6 777.749 1297.6 791.102V1024.18C1297.6 1026.57 1298.07 1028.94 1298.96 1031.15C1299.86 1033.36 1301.17 1035.37 1302.82 1037.06C1304.47 1038.75 1306.44 1040.09 1308.6 1041C1310.76 1041.92 1313.07 1042.39 1315.41 1042.39C1317.75 1042.39 1320.07 1041.92 1322.23 1041C1324.39 1040.09 1326.35 1038.75 1328 1037.06C1329.66 1035.37 1330.97 1033.36 1331.86 1031.15C1332.76 1028.94 1333.22 1026.57 1333.22 1024.18V836.423L1461.82 1024.99C1470.92 1038.34 1476.06 1042.8 1485.56 1042.8M1740.79 1042.8C1751.47 1042.8 1758.59 1035.92 1758.59 1022.16V791.911C1758.59 778.558 1751.47 770.465 1740.79 770.465C1730.1 770.465 1722.98 778.558 1722.98 791.911V890.646H1590.03V791.911C1590.03 778.558 1582.9 770.465 1572.22 770.465C1561.54 770.465 1554.41 778.558 1554.41 791.911V1022.16C1554.41 1035.92 1560.74 1042.8 1572.22 1042.8C1583.69 1042.8 1590.03 1035.92 1590.03 1022.16V922.209H1722.98V1022.16C1722.98 1035.92 1729.31 1042.8 1740.79 1042.8ZM1912.13 1042.8C1836.15 1042.8 1796.58 974.409 1796.58 906.832C1796.58 839.255 1836.15 770.465 1912.13 770.465C1988.1 770.465 2026.88 838.85 2026.88 906.832C2026.88 974.813 1987.31 1042.8 1912.13 1042.8ZM1912.13 802.027C1854.75 802.027 1832.99 856.25 1832.99 906.832C1832.99 957.413 1853.17 1011.23 1912.13 1011.23C1971.09 1011.23 1991.27 957.413 1991.27 906.832C1991.27 856.25 1971.09 802.027 1912.13 802.027ZM2178.43 1041.18C2180.86 1041.56 2183.33 1041.4 2185.69 1040.71C2188.05 1040.02 2190.24 1038.82 2192.1 1037.18C2193.96 1035.55 2195.46 1033.52 2196.48 1031.25C2197.5 1028.97 2198.04 1026.49 2198.04 1023.98C2198.04 1021.47 2197.5 1018.99 2196.48 1016.71C2195.46 1014.43 2193.96 1012.41 2192.1 1010.77C2190.24 1009.14 2188.05 1007.94 2185.69 1007.25C2183.33 1006.56 2180.86 1006.4 2178.43 1006.78H2102.85V923.828H2171.71C2174.13 924.209 2176.61 924.05 2178.97 923.361C2181.32 922.672 2183.51 921.469 2185.37 919.835C2187.23 918.202 2188.73 916.176 2189.75 913.897C2190.78 911.617 2191.31 909.138 2191.31 906.629C2191.31 904.121 2190.78 901.641 2189.75 899.362C2188.73 897.082 2187.23 895.057 2185.37 893.423C2183.51 891.79 2181.32 890.588 2178.97 889.899C2176.61 889.21 2174.13 889.051 2171.71 889.432H2102.85V806.478H2178.43C2180.86 806.859 2183.33 806.7 2185.69 806.011C2188.05 805.322 2190.24 804.12 2192.1 802.487C2193.96 800.853 2195.46 798.827 2196.48 796.548C2197.5 794.269 2198.04 791.789 2198.04 789.281C2198.04 786.772 2197.5 784.293 2196.48 782.013C2195.46 779.734 2193.96 777.708 2192.1 776.075C2190.24 774.441 2188.05 773.239 2185.69 772.55C2183.33 771.861 2180.86 771.702 2178.43 772.084H2086.63C2084.1 771.949 2081.58 772.379 2079.23 773.346C2076.88 774.312 2074.76 775.79 2073.03 777.678C2071.3 779.565 2069.99 781.816 2069.19 784.274C2068.4 786.733 2068.14 789.339 2068.43 791.911V1021.35C2068.06 1023.93 2068.27 1026.57 2069.04 1029.06C2069.81 1031.55 2071.11 1033.84 2072.86 1035.74C2074.61 1037.65 2076.76 1039.12 2079.14 1040.06C2081.52 1041 2084.08 1041.39 2086.63 1041.18H2178.43ZM2403.58 1041.18C2405.8 1041.34 2408.03 1041.05 2410.13 1040.32C2412.23 1039.59 2414.17 1038.44 2415.83 1036.93C2417.49 1035.42 2418.84 1033.58 2419.79 1031.53C2420.75 1029.48 2421.29 1027.26 2421.39 1024.99C2421.3 1022.24 2420.62 1019.54 2419.39 1017.09C2418.16 1014.64 2416.41 1012.5 2414.27 1010.83L2299.52 897.121L2404.38 800.408C2406.71 798.462 2408.57 795.985 2409.81 793.176C2411.04 790.366 2411.62 787.301 2411.5 784.223C2411.5 782.133 2411.09 780.065 2410.28 778.144C2409.48 776.224 2408.3 774.492 2406.82 773.053C2405.34 771.614 2403.59 770.499 2401.67 769.775C2399.75 769.052 2397.71 768.736 2395.67 768.846C2388.55 768.846 2383.4 774.107 2377.07 779.772L2268.65 880.53V787.864C2269.03 785.273 2268.86 782.629 2268.15 780.112C2267.44 777.594 2266.21 775.263 2264.54 773.278C2262.86 771.292 2260.79 769.698 2258.46 768.606C2256.14 767.514 2253.61 766.948 2251.04 766.948C2248.48 766.948 2245.95 767.514 2243.62 768.606C2241.29 769.698 2239.22 771.292 2237.55 773.278C2235.88 775.263 2234.64 777.594 2233.93 780.112C2233.22 782.629 2233.05 785.273 2233.43 787.864V1022.56C2233.05 1025.15 2233.22 1027.8 2233.93 1030.32C2234.64 1032.83 2235.88 1035.16 2237.55 1037.15C2239.22 1039.13 2241.29 1040.73 2243.62 1041.82C2245.95 1042.91 2248.48 1043.48 2251.04 1043.48C2253.61 1043.48 2256.14 1042.91 2258.46 1041.82C2260.79 1040.73 2262.86 1039.13 2264.54 1037.15C2266.21 1035.16 2267.44 1032.83 2268.15 1030.32C2268.86 1027.8 2269.03 1025.15 2268.65 1022.56V914.925L2387.36 1036.32C2389.54 1038.55 2392.13 1040.31 2394.99 1041.49C2397.84 1042.67 2400.9 1043.25 2403.98 1043.2M1855.15 686.701C1867.41 686.701 1871.77 677.8 1875.33 668.088L1954.47 442.292C1955.94 438.277 1956.75 434.036 1956.84 429.748C1956.84 427.659 1956.43 425.591 1955.63 423.671C1954.82 421.751 1953.64 420.017 1952.16 418.578C1950.68 417.139 1948.93 416.024 1947.01 415.301C1945.09 414.577 1943.05 414.261 1941.01 414.371C1927.95 414.371 1924.39 424.084 1920.04 437.032L1855.54 627.218L1790.25 435.008C1786.69 424.083 1783.13 414.371 1769.68 414.371C1767.64 414.261 1765.59 414.577 1763.68 415.301C1761.76 416.024 1760.01 417.139 1758.53 418.578C1757.05 420.017 1755.87 421.751 1755.06 423.671C1754.26 425.591 1753.84 427.659 1753.85 429.748C1754.11 434.053 1755.05 438.288 1756.62 442.292L1835.76 668.088C1838.92 677.8 1843.67 686.701 1855.94 686.701M2150.73 686.701C2146.86 686.669 2143.11 685.348 2140.04 682.939C2136.97 680.529 2134.75 677.163 2133.72 673.349L2117.1 627.218H1998.39L1981.77 673.349C1980.94 677.2 1978.83 680.638 1975.8 683.075C1972.77 685.511 1969.01 686.793 1965.15 686.701C1963.06 686.924 1960.95 686.708 1958.94 686.066C1956.94 685.423 1955.08 684.369 1953.49 682.967C1951.89 681.565 1950.59 679.846 1949.67 677.914C1948.75 675.982 1948.23 673.877 1948.13 671.73C1948.66 666.729 1949.86 661.827 1951.7 657.162V655.139L2030.84 435.008C2036.38 421.655 2044.29 414.371 2055.77 414.371C2061.43 414.541 2066.86 416.678 2071.18 420.429C2075.49 424.18 2078.43 429.322 2079.51 435.008L2160.63 657.162C2162.64 661.765 2163.85 666.697 2164.19 671.73C2164.14 673.858 2163.67 675.954 2162.79 677.886C2161.91 679.817 2160.66 681.541 2159.09 682.949C2157.53 684.356 2155.7 685.417 2153.71 686.063C2151.73 686.709 2149.64 686.926 2147.57 686.701M2011.05 595.25H2107.21L2059.72 457.265L2011.05 595.25ZM2385.38 686.296C2396.86 686.296 2402 680.228 2402 665.66V432.986C2402.38 430.395 2402.21 427.749 2401.5 425.232C2400.79 422.714 2399.56 420.384 2397.89 418.398C2396.22 416.412 2394.15 414.819 2391.82 413.726C2389.49 412.634 2386.96 412.069 2384.39 412.069C2381.83 412.069 2379.3 412.634 2376.97 413.726C2374.64 414.819 2372.57 416.412 2370.9 418.398C2369.23 420.384 2367.99 422.714 2367.28 425.232C2366.57 427.749 2366.4 430.395 2366.78 432.986V621.553L2237.79 431.772C2228.29 418.418 2223.94 413.967 2214.05 413.967C2204.15 413.967 2197.43 421.25 2197.43 434.603V667.683C2197.05 670.274 2197.21 672.918 2197.92 675.436C2198.63 677.953 2199.87 680.285 2201.54 682.271C2203.21 684.256 2205.28 685.849 2207.61 686.941C2209.94 688.033 2212.47 688.6 2215.04 688.6C2217.6 688.6 2220.13 688.033 2222.46 686.941C2224.79 685.849 2226.86 684.256 2228.53 682.271C2230.2 680.285 2231.43 677.953 2232.14 675.436C2232.85 672.918 2233.02 670.274 2232.64 667.683V479.925L2361.64 669.302C2370.35 681.846 2375.49 686.296 2385.38 686.296Z" fill="#F0E5E9"/>
</svg>
