<svg width="15" height="16" viewBox="0 0 15 16" fill="none" xmlns="http://www.w3.org/2000/svg">
<path d="M1.51309 16C1.09028 16 0.732397 15.8535 0.439438 15.5606C0.146479 15.2676 0 14.9097 0 14.4869V3.28371C0 2.8609 0.146479 2.50302 0.439438 2.21006C0.732397 1.9171 1.09028 1.77062 1.51309 1.77062H2.67206V0H3.95975V1.77062H10.3018V0H11.5573V1.77062H12.7163C13.1391 1.77062 13.497 1.9171 13.7899 2.21006C14.0829 2.50302 14.2294 2.8609 14.2294 3.28371V14.4869C14.2294 14.9097 14.0829 15.2676 13.7899 15.5606C13.497 15.8535 13.1391 16 12.7163 16H1.51309ZM1.25552 14.4869C1.25552 14.5513 1.28234 14.6103 1.336 14.664C1.38966 14.7177 1.44869 14.7445 1.51309 14.7445H12.7163C12.7807 14.7445 12.8397 14.7177 12.8934 14.664C12.947 14.6103 12.9739 14.5513 12.9739 14.4869V3.28371C12.9739 3.21932 12.947 3.16028 12.8934 3.10662C12.8397 3.05296 12.7807 3.02614 12.7163 3.02614H1.51309C1.44869 3.02614 1.38966 3.05296 1.336 3.10662C1.28234 3.16028 1.25552 3.21932 1.25552 3.28371V14.4869ZM4.86119 14.7445V13.0688L3.29013 11.2225C3.15278 11.0798 3.03152 10.892 2.92636 10.6592C2.82121 10.4263 2.76863 10.1569 2.76863 9.85111C2.76863 9.68048 2.78606 9.51468 2.82094 9.35371C2.85582 9.19275 2.91242 9.03662 2.99075 8.88531C2.921 8.74258 2.86654 8.59074 2.82736 8.42978C2.78821 8.26882 2.76863 8.09873 2.76863 7.91951C2.76863 7.61369 2.82121 7.34434 2.92636 7.11147C3.03152 6.87861 3.15278 6.69082 3.29013 6.54811L4.86119 4.70182V3.02614H5.85915V4.84344C5.85915 4.9132 5.81033 5.04572 5.71267 5.24103L4.03862 7.20804C3.94097 7.31964 3.87122 7.43473 3.82937 7.55331C3.78752 7.67189 3.76659 7.79396 3.76659 7.91951C3.76659 8.19852 3.85727 8.43916 4.03862 8.64144C4.21998 8.84372 4.45016 8.94487 4.72917 8.94487C4.85472 8.94487 4.97196 8.92394 5.08089 8.88209C5.1898 8.84024 5.28879 8.77048 5.37786 8.67283C5.61502 8.43567 5.88357 8.25432 6.1835 8.12877C6.48343 8.00321 6.79383 7.94044 7.11469 7.94044C7.43555 7.94044 7.74595 8.00321 8.04588 8.12877C8.34581 8.25432 8.61436 8.43567 8.85152 8.67283C8.94917 8.77048 9.0538 8.84024 9.1654 8.88209C9.277 8.92394 9.38861 8.94487 9.50021 8.94487C9.77922 8.94487 10.0094 8.84372 10.1908 8.64144C10.3721 8.43916 10.4628 8.20549 10.4628 7.94044C10.4628 7.81488 10.4384 7.69282 10.3895 7.57424C10.3407 7.45566 10.2745 7.34057 10.1908 7.22896L8.51671 5.24103C8.4609 5.18523 8.42254 5.12245 8.40162 5.0527C8.38069 4.98295 8.37023 4.9132 8.37023 4.84344V3.02614H9.36819V4.70985L10.9521 6.5819C11.1259 6.77828 11.2542 6.9921 11.3368 7.22336C11.4194 7.4546 11.4608 7.69362 11.4608 7.94044C11.4608 8.11106 11.439 8.27686 11.3956 8.43784C11.3521 8.5988 11.2955 8.74796 11.2258 8.88531C11.3041 9.03662 11.3628 9.19275 11.402 9.35371C11.4412 9.51468 11.4608 9.68048 11.4608 9.85111C11.4608 10.1569 11.4082 10.4263 11.303 10.6592C11.1979 10.892 11.0766 11.0798 10.9392 11.2225L9.36819 13.0688V14.7445H8.37023V12.9272C8.37023 12.8435 8.41905 12.7109 8.51671 12.5296L10.1908 10.5626C10.2991 10.4349 10.3743 10.2962 10.4161 10.1465C10.458 9.99677 10.4655 9.84841 10.4386 9.70139C10.2959 9.78188 10.1492 9.84225 9.99841 9.88248C9.84763 9.92273 9.68854 9.94285 9.52114 9.94285C9.27433 9.94285 9.02885 9.89375 8.78472 9.79555C8.54059 9.69737 8.32463 9.55009 8.13684 9.35371C8.01236 9.21528 7.86079 9.11145 7.68211 9.04223C7.50343 8.97302 7.31429 8.93842 7.11469 8.93842C6.92904 8.93842 6.74553 8.97302 6.56418 9.04223C6.38282 9.11145 6.22561 9.21528 6.09254 9.35371C5.91011 9.55009 5.69763 9.69737 5.45512 9.79555C5.21259 9.89375 4.96792 9.94285 4.72111 9.94285C4.55371 9.94285 4.39248 9.92273 4.23742 9.88248C4.08236 9.84225 3.93346 9.78188 3.79074 9.70139C3.76391 9.84841 3.77142 9.99677 3.81328 10.1465C3.85513 10.2962 3.93024 10.4349 4.03862 10.5626L5.71267 12.5296C5.75452 12.5993 5.7894 12.6656 5.8173 12.7284C5.8452 12.7912 5.85915 12.8574 5.85915 12.9272V14.7445H4.86119ZM1.25552 14.4869V14.7445V3.02614V14.4869Z" fill="#747474"/>
</svg>
