<svg width="12" height="14" viewBox="0 0 12 14" fill="none" xmlns="http://www.w3.org/2000/svg">
<path d="M1.53839 13.3334C1.20163 13.3334 0.916585 13.2167 0.683252 12.9834C0.449919 12.7501 0.333252 12.465 0.333252 12.1283V3.20523C0.333252 2.86847 0.449919 2.58343 0.683252 2.35009C0.916585 2.11676 1.20163 2.00009 1.53839 2.00009H2.46147V0.589844H3.48709V2.00009H8.53835V0.589844H9.53834V2.00009H10.4614C10.7982 2.00009 11.0832 2.11676 11.3166 2.35009C11.5499 2.58343 11.6666 2.86847 11.6666 3.20523V12.1283C11.6666 12.465 11.5499 12.7501 11.3166 12.9834C11.0832 13.2167 10.7982 13.3334 10.4614 13.3334H1.53839ZM1.53839 12.3334H10.4614C10.5127 12.3334 10.5597 12.312 10.6025 12.2693C10.6452 12.2266 10.6666 12.1795 10.6666 12.1283V5.87189H1.33324V12.1283C1.33324 12.1795 1.3546 12.2266 1.39734 12.2693C1.44008 12.312 1.4871 12.3334 1.53839 12.3334ZM1.33324 4.87191H10.6666V3.20523C10.6666 3.15394 10.6452 3.10692 10.6025 3.06418C10.5597 3.02144 10.5127 3.00008 10.4614 3.00008H1.53839C1.4871 3.00008 1.44008 3.02144 1.39734 3.06418C1.3546 3.10692 1.33324 3.15394 1.33324 3.20523V4.87191ZM5.9999 8.38469C5.83666 8.38469 5.69756 8.32722 5.5826 8.21226C5.46765 8.0973 5.41017 7.9582 5.41017 7.79496C5.41017 7.63172 5.46765 7.49262 5.5826 7.37766C5.69756 7.2627 5.83666 7.20523 5.9999 7.20523C6.16315 7.20523 6.30225 7.2627 6.4172 7.37766C6.53216 7.49262 6.58964 7.63172 6.58964 7.79496C6.58964 7.9582 6.53216 8.0973 6.4172 8.21226C6.30225 8.32722 6.16315 8.38469 5.9999 8.38469ZM3.33324 8.38469C3.16999 8.38469 3.03089 8.32722 2.91594 8.21226C2.80098 8.0973 2.7435 7.9582 2.7435 7.79496C2.7435 7.63172 2.80098 7.49262 2.91594 7.37766C3.03089 7.2627 3.16999 7.20523 3.33324 7.20523C3.49648 7.20523 3.63558 7.2627 3.75054 7.37766C3.86549 7.49262 3.92297 7.63172 3.92297 7.79496C3.92297 7.9582 3.86549 8.0973 3.75054 8.21226C3.63558 8.32722 3.49648 8.38469 3.33324 8.38469ZM8.66657 8.38469C8.50333 8.38469 8.36422 8.32722 8.24927 8.21226C8.13431 8.0973 8.07684 7.9582 8.07684 7.79496C8.07684 7.63172 8.13431 7.49262 8.24927 7.37766C8.36422 7.2627 8.50333 7.20523 8.66657 7.20523C8.82981 7.20523 8.96891 7.2627 9.08387 7.37766C9.19882 7.49262 9.2563 7.63172 9.2563 7.79496C9.2563 7.9582 9.19882 8.0973 9.08387 8.21226C8.96891 8.32722 8.82981 8.38469 8.66657 8.38469ZM5.9999 11.0001C5.83666 11.0001 5.69756 10.9426 5.5826 10.8276C5.46765 10.7127 5.41017 10.5736 5.41017 10.4103C5.41017 10.2471 5.46765 10.108 5.5826 9.99304C5.69756 9.87808 5.83666 9.82059 5.9999 9.82059C6.16315 9.82059 6.30225 9.87808 6.4172 9.99304C6.53216 10.108 6.58964 10.2471 6.58964 10.4103C6.58964 10.5736 6.53216 10.7127 6.4172 10.8276C6.30225 10.9426 6.16315 11.0001 5.9999 11.0001ZM3.33324 11.0001C3.16999 11.0001 3.03089 10.9426 2.91594 10.8276C2.80098 10.7127 2.7435 10.5736 2.7435 10.4103C2.7435 10.2471 2.80098 10.108 2.91594 9.99304C3.03089 9.87808 3.16999 9.82059 3.33324 9.82059C3.49648 9.82059 3.63558 9.87808 3.75054 9.99304C3.86549 10.108 3.92297 10.2471 3.92297 10.4103C3.92297 10.5736 3.86549 10.7127 3.75054 10.8276C3.63558 10.9426 3.49648 11.0001 3.33324 11.0001ZM8.66657 11.0001C8.50333 11.0001 8.36422 10.9426 8.24927 10.8276C8.13431 10.7127 8.07684 10.5736 8.07684 10.4103C8.07684 10.2471 8.13431 10.108 8.24927 9.99304C8.36422 9.87808 8.50333 9.82059 8.66657 9.82059C8.82981 9.82059 8.96891 9.87808 9.08387 9.99304C9.19882 10.108 9.2563 10.2471 9.2563 10.4103C9.2563 10.5736 9.19882 10.7127 9.08387 10.8276C8.96891 10.9426 8.82981 11.0001 8.66657 11.0001Z" fill="#964C66"/>
</svg>
