<svg width="16" height="16" viewBox="0 0 16 16" fill="none" xmlns="http://www.w3.org/2000/svg">
<path d="M5.65176 8.23882H6.39087V6.7606H7.12997C7.33939 6.7606 7.51493 6.68977 7.65659 6.54811C7.79825 6.40645 7.86908 6.23091 7.86908 6.0215V5.28239C7.86908 5.07298 7.79825 4.89744 7.65659 4.75578C7.51493 4.61412 7.33939 4.54329 7.12997 4.54329H5.65176V8.23882ZM6.39087 6.0215V5.28239H7.12997V6.0215H6.39087ZM8.60818 8.23882H10.0864C10.2958 8.23882 10.4713 8.16798 10.613 8.02632C10.7547 7.88466 10.8255 7.70912 10.8255 7.49971V5.28239C10.8255 5.07298 10.7547 4.89744 10.613 4.75578C10.4713 4.61412 10.2958 4.54329 10.0864 4.54329H8.60818V8.23882ZM9.34729 7.49971V5.28239H10.0864V7.49971H9.34729ZM11.5646 8.23882H12.3037V6.7606H13.0428V6.0215H12.3037V5.28239H13.0428V4.54329H11.5646V8.23882ZM4.91266 12.3039C4.50615 12.3039 4.15816 12.1592 3.86867 11.8697C3.57919 11.5802 3.43445 11.2322 3.43445 10.8257V1.95642C3.43445 1.54991 3.57919 1.20192 3.86867 0.912435C4.15816 0.622952 4.50615 0.47821 4.91266 0.47821H13.7819C14.1884 0.47821 14.5364 0.622952 14.8259 0.912435C15.1154 1.20192 15.2601 1.54991 15.2601 1.95642V10.8257C15.2601 11.2322 15.1154 11.5802 14.8259 11.8697C14.5364 12.1592 14.1884 12.3039 13.7819 12.3039H4.91266ZM4.91266 10.8257H13.7819V1.95642H4.91266V10.8257ZM1.95624 15.2603C1.54973 15.2603 1.20173 15.1156 0.912252 14.8261C0.622769 14.5366 0.478027 14.1886 0.478027 13.7821V3.43463H1.95624V13.7821H12.3037V15.2603H1.95624Z" fill="#F0E5E9"/>
</svg>
