<svg width="17" height="17" viewBox="0 0 17 17" fill="none" xmlns="http://www.w3.org/2000/svg">
<path d="M8.21045 7.8555C7.15678 7.8555 6.25477 7.48033 5.50441 6.73C4.75406 5.97964 4.37888 5.07763 4.37888 4.02396C4.37888 2.97027 4.75406 2.06825 5.50441 1.31792C6.25477 0.56756 7.15678 0.192383 8.21045 0.192383C9.26413 0.192383 10.1661 0.56756 10.9165 1.31792C11.6669 2.06825 12.042 2.97027 12.042 4.02396C12.042 5.07763 11.6669 5.97964 10.9165 6.73C10.1661 7.48033 9.26413 7.8555 8.21045 7.8555ZM-9.15527e-05 16.1924V13.7587C-9.15527e-05 13.2226 0.145527 12.7261 0.436765 12.2693C0.727985 11.8124 1.1171 11.4612 1.60412 11.2156C2.68623 10.685 3.77782 10.2871 4.87888 10.0219C5.97993 9.75663 7.09046 9.62401 8.21045 9.62401C9.33045 9.62401 10.441 9.75663 11.542 10.0219C12.6431 10.2871 13.7347 10.685 14.8168 11.2156C15.3038 11.4612 15.6929 11.8124 15.9841 12.2693C16.2754 12.7261 16.421 13.2226 16.421 13.7587V16.1924H-9.15527e-05ZM1.642 14.5503H14.7789V13.7587C14.7789 13.537 14.7147 13.3317 14.5863 13.1429C14.4579 12.9542 14.2835 12.8001 14.0631 12.6808C13.12 12.2162 12.1582 11.8643 11.178 11.625C10.1977 11.3857 9.20853 11.2661 8.21045 11.2661C7.21238 11.2661 6.2232 11.3857 5.24293 11.625C4.26266 11.8643 3.30095 12.2162 2.35779 12.6808C2.13744 12.8001 1.96306 12.9542 1.83464 13.1429C1.70621 13.3317 1.642 13.537 1.642 13.7587V14.5503ZM8.21045 6.21344C8.81256 6.21344 9.328 5.99906 9.75678 5.57028C10.1856 5.14151 10.3999 4.62607 10.3999 4.02396C10.3999 3.42185 10.1856 2.90641 9.75678 2.47763C9.328 2.04886 8.81256 1.83447 8.21045 1.83447C7.60835 1.83447 7.0929 2.04886 6.66413 2.47763C6.23536 2.90641 6.02097 3.42185 6.02097 4.02396C6.02097 4.62607 6.23536 5.14151 6.66413 5.57028C7.0929 5.99906 7.60835 6.21344 8.21045 6.21344Z" fill="#747474"/>
</svg>
