<svg width="125" height="124" viewBox="0 0 125 124" fill="none" xmlns="http://www.w3.org/2000/svg">
<path d="M114.379 124L70.979 80.6C67.5345 83.3556 63.5734 85.537 59.0957 87.1444C54.6179 88.7519 49.8531 89.5556 44.8012 89.5556C32.2864 89.5556 21.6947 85.2213 13.0262 76.5528C4.3577 67.8843 0.0234375 57.2926 0.0234375 44.7778C0.0234375 32.263 4.3577 21.6713 13.0262 13.0028C21.6947 4.33426 32.2864 0 44.8012 0C57.316 0 67.9077 4.33426 76.5762 13.0028C85.2447 21.6713 89.579 32.263 89.579 44.7778C89.579 49.8296 88.7753 54.5944 87.1679 59.0722C85.5605 63.55 83.379 67.5111 80.6234 70.9556L124.023 114.356L114.379 124ZM44.8012 75.7778C53.4123 75.7778 60.7318 72.7639 66.7595 66.7361C72.7873 60.7083 75.8012 53.3889 75.8012 44.7778C75.8012 36.1667 72.7873 28.8472 66.7595 22.8194C60.7318 16.7917 53.4123 13.7778 44.8012 13.7778C36.1901 13.7778 28.8707 16.7917 22.8429 22.8194C16.8151 28.8472 13.8012 36.1667 13.8012 44.7778C13.8012 53.3889 16.8151 60.7083 22.8429 66.7361C28.8707 72.7639 36.1901 75.7778 44.8012 75.7778Z" fill="#1F000B"/>
</svg>

