<svg width="15" height="11" viewBox="0 0 15 11" fill="none" xmlns="http://www.w3.org/2000/svg">
<path d="M7.67195 8.2295C8.47113 8.2295 9.15043 7.94979 9.70986 7.39037C10.2693 6.83094 10.549 6.15164 10.549 5.35246C10.549 4.55327 10.2693 3.87397 9.70986 3.31455C9.15043 2.75512 8.47113 2.47541 7.67195 2.47541C6.87277 2.47541 6.19346 2.75512 5.63404 3.31455C5.07461 3.87397 4.7949 4.55327 4.7949 5.35246C4.7949 6.15164 5.07461 6.83094 5.63404 7.39037C6.19346 7.94979 6.87277 8.2295 7.67195 8.2295ZM7.67195 7.07868C7.19244 7.07868 6.78486 6.91086 6.4492 6.5752C6.11355 6.23955 5.94572 5.83196 5.94572 5.35246C5.94572 4.87295 6.11355 4.46536 6.4492 4.12971C6.78486 3.79405 7.19244 3.62623 7.67195 3.62623C8.15146 3.62623 8.55904 3.79405 8.89469 4.12971C9.23035 4.46536 9.39818 4.87295 9.39818 5.35246C9.39818 5.83196 9.23035 6.23955 8.89469 6.5752C8.55904 6.91086 8.15146 7.07868 7.67195 7.07868ZM7.67195 10.1475C6.11621 10.1475 4.699 9.71332 3.42031 8.84487C2.14162 7.97643 1.21457 6.81229 0.63916 5.35246C1.21457 3.89262 2.14162 2.72848 3.42031 1.86004C4.699 0.991594 6.11621 0.557373 7.67195 0.557373C9.22768 0.557373 10.6449 0.991594 11.9236 1.86004C13.2023 2.72848 14.1293 3.89262 14.7047 5.35246C14.1293 6.81229 13.2023 7.97643 11.9236 8.84487C10.6449 9.71332 9.22768 10.1475 7.67195 10.1475ZM7.67195 8.86885C8.87605 8.86885 9.98158 8.55184 10.9885 7.91782C11.9955 7.28381 12.7654 6.42868 13.2982 5.35246C12.7654 4.27623 11.9955 3.4211 10.9885 2.78709C9.98158 2.15307 8.87605 1.83606 7.67195 1.83606C6.46785 1.83606 5.36232 2.15307 4.35535 2.78709C3.34838 3.4211 2.5785 4.27623 2.04572 5.35246C2.5785 6.42868 3.34838 7.28381 4.35535 7.91782C5.36232 8.55184 6.46785 8.86885 7.67195 8.86885Z" fill="#F0E5E9" fill-opacity="0.8"/>
</svg>
