<svg width="14" height="10" viewBox="0 0 14 10" fill="none" xmlns="http://www.w3.org/2000/svg">
<path d="M7.00149 7.38458C7.75687 7.38458 8.39846 7.12019 8.92624 6.59142C9.45401 6.06263 9.7179 5.42053 9.7179 4.66513C9.7179 3.90974 9.45351 3.26816 8.92474 2.74038C8.39595 2.21261 7.75385 1.94872 6.99845 1.94872C6.24306 1.94872 5.60148 2.21311 5.0737 2.74188C4.54592 3.27067 4.28204 3.91277 4.28204 4.66817C4.28204 5.42356 4.54642 6.06514 5.0752 6.59292C5.60399 7.12069 6.24609 7.38458 7.00149 7.38458ZM6.99997 6.46665C6.49997 6.46665 6.07497 6.29165 5.72497 5.94165C5.37497 5.59165 5.19997 5.16665 5.19997 4.66665C5.19997 4.16665 5.37497 3.74165 5.72497 3.39165C6.07497 3.04165 6.49997 2.86665 6.99997 2.86665C7.49997 2.86665 7.92497 3.04165 8.27497 3.39165C8.62497 3.74165 8.79997 4.16665 8.79997 4.66665C8.79997 5.16665 8.62497 5.59165 8.27497 5.94165C7.92497 6.29165 7.49997 6.46665 6.99997 6.46665ZM7.00089 9.3333C5.46781 9.3333 4.07092 8.91044 2.81023 8.06472C1.54956 7.21899 0.621357 6.08631 0.0256348 4.66665C0.621357 3.24699 1.54926 2.11431 2.80934 1.26858C4.0694 0.422862 5.46597 0 6.99905 0C8.53213 0 9.92901 0.422862 11.1897 1.26858C12.4504 2.11431 13.3786 3.24699 13.9743 4.66665C13.3786 6.08631 12.4507 7.21899 11.1906 8.06472C9.93054 8.91044 8.53396 9.3333 7.00089 9.3333ZM6.99997 8.33332C8.25552 8.33332 9.4083 8.00276 10.4583 7.34165C11.5083 6.68054 12.3111 5.78887 12.8666 4.66665C12.3111 3.54443 11.5083 2.65276 10.4583 1.99165C9.4083 1.33054 8.25552 0.999984 6.99997 0.999984C5.74441 0.999984 4.59164 1.33054 3.54164 1.99165C2.49163 2.65276 1.68886 3.54443 1.1333 4.66665C1.68886 5.78887 2.49163 6.68054 3.54164 7.34165C4.59164 8.00276 5.74441 8.33332 6.99997 8.33332Z" fill="#964C66"/>
</svg>
