<svg width="19" height="17" viewBox="0 0 19 17" fill="none" xmlns="http://www.w3.org/2000/svg">
<path d="M17.278 15.124V1.62879C17.278 1.54927 17.2524 1.48395 17.2013 1.43282C17.1502 1.3817 17.0848 1.35613 17.0053 1.35613H1.60169C1.52217 1.35613 1.45685 1.3817 1.40572 1.43282C1.3546 1.48395 1.32903 1.54927 1.32903 1.62879V8.44455H0V1.62879C0 1.18832 0.156831 0.811257 0.470494 0.497594C0.784156 0.183932 1.16122 0.0270996 1.60169 0.0270996H17.0053C17.4458 0.0270996 17.8229 0.183932 18.1365 0.497594C18.4502 0.811257 18.607 1.18832 18.607 1.62879V13.6331C18.607 14.0182 18.479 14.353 18.2228 14.6375C17.9666 14.9221 17.6517 15.0842 17.278 15.124ZM6.64535 9.27948C5.79254 9.27948 5.06247 8.97583 4.45516 8.36853C3.84784 7.76121 3.54419 7.03115 3.54419 6.17834C3.54419 5.32551 3.84784 4.59545 4.45516 3.98815C5.06247 3.38084 5.79254 3.07718 6.64535 3.07718C7.49816 3.07718 8.22822 3.38084 8.83554 3.98815C9.44285 4.59545 9.74651 5.32551 9.74651 6.17834C9.74651 7.03115 9.44285 7.76121 8.83554 8.36853C8.22822 8.97583 7.49816 9.27948 6.64535 9.27948ZM6.64535 7.95044C7.13268 7.95044 7.54986 7.77693 7.8969 7.42989C8.24393 7.08285 8.41745 6.66567 8.41745 6.17834C8.41745 5.69101 8.24393 5.27383 7.8969 4.92679C7.54986 4.57975 7.13268 4.40624 6.64535 4.40624C6.15802 4.40624 5.74084 4.57975 5.3938 4.92679C5.04676 5.27383 4.87324 5.69101 4.87324 6.17834C4.87324 6.66567 5.04676 7.08285 5.3938 7.42989C5.74084 7.77693 6.15802 7.95044 6.64535 7.95044ZM0 16.0271V14.0574C0 13.6234 0.117845 13.2216 0.353535 12.8518C0.589254 12.4821 0.904202 12.1978 1.29838 11.999C2.17421 11.5696 3.05771 11.2476 3.94887 11.0329C4.84003 10.8182 5.73886 10.7109 6.64535 10.7109C7.55184 10.7109 8.45067 10.8182 9.34183 11.0329C10.233 11.2476 11.1165 11.5696 11.9923 11.999C12.3865 12.1978 12.7014 12.4821 12.9371 12.8518C13.1729 13.2216 13.2907 13.6234 13.2907 14.0574V16.0271H0ZM1.32903 14.698H11.9617V14.0574C11.9617 13.8779 11.9097 13.7117 11.8057 13.559C11.7018 13.4062 11.5607 13.2815 11.3823 13.1849C10.619 12.8089 9.84057 12.5241 9.04717 12.3304C8.25377 12.1367 7.45316 12.0399 6.64535 12.0399C5.83753 12.0399 5.03693 12.1367 4.24353 12.3304C3.45013 12.5241 2.67174 12.8089 1.90838 13.1849C1.73003 13.2815 1.58889 13.4062 1.48496 13.559C1.38101 13.7117 1.32903 13.8779 1.32903 14.0574V14.698Z" fill="#747474"/>
</svg>
